<?xml version="1.0" encoding="UTF-8"?>
<svg version="1.1" xmlns="http://www.w3.org/2000/svg" width="1000" height="1000">
<path d="M0 0 C330 0 660 0 1000 0 C1000 330 1000 660 1000 1000 C670 1000 340 1000 0 1000 C0 670 0 340 0 0 Z " fill="#FEFEFE" transform="translate(0,0)"/>
<path d="M0 0 C49.50470067 -0.06618911 99.00935947 -0.12156133 148.51409175 -0.15319599 C154.36421229 -0.15694792 160.21433273 -0.1608309 166.06445312 -0.16479492 C167.22906191 -0.16558185 168.3936707 -0.16636878 169.59357066 -0.16717956 C188.42811649 -0.18021837 207.26263472 -0.2038638 226.0971642 -0.23145839 C245.43628162 -0.25955505 264.77538463 -0.27618526 284.11452162 -0.28226548 C296.03898874 -0.28637309 307.96337787 -0.29932676 319.88782097 -0.3237494 C328.07501043 -0.33965922 336.2621598 -0.34438852 344.44936357 -0.34050413 C349.16646761 -0.33859073 353.88343575 -0.34143553 358.60051537 -0.35761642 C362.93151843 -0.37236332 367.26229598 -0.37285799 371.59331007 -0.36269668 C373.14813337 -0.3614434 374.70297155 -0.36512272 376.25776617 -0.37464955 C450.38444411 -0.80190095 529.57983874 42.25590203 582.39453125 91.578125 C584.62023159 93.64699188 586.88018383 95.64859558 589.1875 97.625 C595.56315521 103.16732268 601.46234427 109.19300744 606.94921875 115.61328125 C608.5575415 117.48506259 610.18541218 119.33029654 611.83203125 121.16796875 C629.4500264 140.95894073 643.97694039 162.97523061 657 186 C657.39509766 186.69158203 657.79019531 187.38316406 658.19726562 188.09570312 C669.83222201 208.642541 679.39684349 231.32112227 686 254 C686.36399902 255.23194092 686.36399902 255.23194092 686.73535156 256.48876953 C690.92951496 270.82368829 694.41280993 285.28873931 697 300 C697.19899902 301.1142334 697.39799805 302.2284668 697.60302734 303.37646484 C703.04493412 335.41730662 702.97229349 369.51438899 700.16413879 401.83493042 C699.89759444 405.49608773 700.04124023 408.54088375 700.98208714 412.09988594 C702.1760841 417.26175955 702.28775866 422.20276861 702.27415466 427.48336792 C702.27939134 428.50262364 702.28462802 429.52187935 702.29002339 430.5720216 C702.30495816 433.9684649 702.30572712 437.36475667 702.30639648 440.76123047 C702.31402259 443.20460767 702.32245086 445.64798247 702.33161926 448.09135437 C702.35353233 454.71792154 702.36238204 461.3444531 702.36744571 467.97104788 C702.37071307 472.11795237 702.37724192 476.26484769 702.3844471 480.41174698 C702.40400601 491.91908148 702.42041332 503.42640749 702.42332363 514.93375969 C702.4235112 515.66903434 702.42369877 516.404309 702.42389202 517.16186471 C702.42425825 518.65212417 702.42462195 520.14238363 702.42498314 521.63264309 C702.42516595 522.3722986 702.42534876 523.11195412 702.42553711 523.87402344 C702.42580793 524.98487978 702.42580793 524.98487978 702.42608423 526.11817767 C702.42961995 538.09702403 702.45660774 550.07568997 702.494035 562.05447386 C702.53225434 574.38668544 702.55148212 586.71880783 702.55178314 599.05107987 C702.5523648 605.96149011 702.56066631 612.87168529 702.58978081 619.78203964 C702.61708031 626.29106106 702.61808449 632.7997707 702.60212517 639.30883217 C702.6003221 641.68422818 702.6068967 644.05964935 702.62294388 646.43499184 C702.77644133 670.65283725 699.08156288 690.78506328 682 709 C669.59326546 720.99128833 657.46944334 724.91306913 640.64372253 724.7215271 C638.91658009 724.72414822 637.18944 724.72941026 635.46231252 724.7370621 C630.74831866 724.75039835 626.03515181 724.7265905 621.32126319 724.69639373 C616.2260128 724.67037388 611.13080539 724.67925888 606.0355072 724.68380737 C597.2182284 724.68694662 588.40121692 724.66819371 579.58400536 724.63438034 C566.83599687 724.58552458 554.08811706 724.5699821 541.3400251 724.56245239 C520.65491425 724.54933526 499.96994573 724.50944536 479.28491211 724.45263672 C459.19670307 724.39752469 439.10853295 724.3551415 419.02026367 724.32958984 C417.14256773 724.32717787 417.14256773 724.32717787 415.22693855 724.32471716 C405.43640602 724.31223992 395.64587264 724.30049862 385.85533893 724.28898978 C337.90342863 724.2324337 289.95187481 724.11171324 242 724 C242 658.33 242 592.66 242 525 C319.125 524.5625 319.125 524.5625 343.41845703 524.43188477 C350.64586248 524.38860077 350.64586248 524.38860077 357.8732605 524.34410095 C361.07597021 524.32441395 364.27868234 524.3072755 367.48141479 524.29173279 C371.58230629 524.27174554 375.68314906 524.2472626 379.78399634 524.21969402 C381.279254 524.21037644 382.77452209 524.20256229 384.26979661 524.19653046 C398.15145244 524.13896758 411.66045179 523.35888101 425.3125 520.75 C426.48820557 520.52675049 427.66391113 520.30350098 428.87524414 520.07348633 C456.3087617 514.71265403 482.92482466 504.47329709 505 487 C505.86367188 486.33871094 506.72734375 485.67742187 507.6171875 484.99609375 C543.54031568 456.72615375 565.69576396 413.86171815 571.58520508 368.76611328 C572.96772788 357.06977213 573.3415163 345.4663048 573.31567383 333.69458008 C573.31251352 330.70031246 573.33609311 327.70703738 573.36132812 324.71289062 C573.41977537 307.20193479 571.87262194 289.85376865 567.125 272.9375 C566.86307861 271.97618164 566.60115723 271.01486328 566.33129883 270.02441406 C564.32441406 262.81596187 562.04061267 255.84544349 559 249 C558.69223633 248.29456055 558.38447266 247.58912109 558.06738281 246.86230469 C551.29296589 231.45420541 542.94331514 217.81746557 532 205 C531.30390625 204.18144531 530.6078125 203.36289062 529.890625 202.51953125 C497.5046705 165.48240243 448.73012635 147.59857619 400.54908586 144.18603373 C387.38979536 143.4962584 374.17190546 143.7381084 360.99905503 143.76786876 C356.14252838 143.77659823 351.28600618 143.77357646 346.42947388 143.77206421 C338.03859864 143.7710213 329.64775478 143.77723536 321.25688744 143.78853989 C309.12547297 143.8048731 296.99407351 143.81001085 284.86264924 143.81251587 C265.17478167 143.81688077 245.48693079 143.830157 225.79907227 143.84912109 C206.68709394 143.8675112 187.57512017 143.88165234 168.46313477 143.89013672 C167.28281471 143.89066217 166.10249466 143.89118761 164.88640734 143.89172898 C158.9644144 143.89433927 153.04242143 143.89686664 147.12042844 143.89935279 C98.08027081 143.92004773 49.04014406 143.95689711 0 144 C0 96.48 0 48.96 0 0 Z " fill="#D70411" transform="translate(138,176)"/>
<path d="M0 0 C68.495625 -0.0825 136.99125 -0.165 207.5625 -0.25 C240.01315796 -0.30462402 240.01315796 -0.30462402 273.11938477 -0.36035156 C299.5213623 -0.37841797 299.5213623 -0.37841797 311.87828064 -0.3817749 C320.51516578 -0.38550395 329.15194733 -0.40017202 337.7888031 -0.42230225 C347.75413072 -0.44779858 357.71935904 -0.45933559 367.6847195 -0.4537798 C372.7803273 -0.45137443 377.87571329 -0.4551368 382.97128022 -0.47686052 C387.58629076 -0.49641538 392.20092392 -0.49723598 396.8159523 -0.48360443 C398.47732031 -0.48191891 400.1387126 -0.48689889 401.80003345 -0.49953032 C422.15343336 -0.64508598 440.60363372 4.72610879 455.50390625 19.25 C469.29063544 34.43913514 475.3424738 51.81206691 475.265625 72.18359375 C475.26753845 73.31974625 475.2694519 74.45589874 475.27142334 75.6264801 C475.27277695 78.01571882 475.26913846 80.4049651 475.26074219 82.79418945 C475.25004125 86.42351029 475.26066085 90.05233508 475.2734375 93.68164062 C475.27211557 96.01562608 475.26955247 98.34961123 475.265625 100.68359375 C475.26967346 101.75475937 475.27372192 102.82592499 475.27789307 103.92955017 C475.15037702 124.7225076 467.94282432 140.71990116 453.75 155.75 C439.19743933 169.78282636 421.36969933 174.17548847 401.67382812 174.12025452 C400.55487656 174.12111053 399.43592499 174.12196655 398.2830658 174.12284851 C394.53244419 174.12449998 390.78186751 174.11898607 387.03125 174.11352539 C384.29691542 174.11266216 381.56258167 174.1133083 378.82824707 174.11389065 C372.25086735 174.11442132 365.67350133 174.10981358 359.09612513 174.10338932 C351.484655 174.09617817 343.87319305 174.09539396 336.26171875 174.09460449 C316.174477 174.08935808 296.08723829 174.07539692 276 174.0625 C231.12 174.041875 186.24 174.02125 140 174 C140 273 140 372 140 474 C93.8 474 47.6 474 0 474 C0 317.58 0 161.16 0 0 Z " fill="#00279C" transform="translate(138,426)"/>
</svg>
